<?xml version="1.0" encoding="iso-8859-1"?>
<!-- Generator: Adobe Illustrator 17.1.0, SVG Export Plug-In . SVG Version: 6.00 Build 0)  -->
<!DOCTYPE svg PUBLIC "-//W3C//DTD SVG 1.1//EN" "http://www.w3.org/Graphics/SVG/1.1/DTD/svg11.dtd">
<svg version="1.1" id="Capa_1" xmlns="http://www.w3.org/2000/svg" xmlns:xlink="http://www.w3.org/1999/xlink" x="0px" y="0px"
	 viewBox="0 0 409 409" style="enable-background:new 0 0 409 409;" xml:space="preserve">
<g>
	<path d="M389.532,167.77c-11.059-41.98-41.676-66.41-53.902-74.738V62.685c12.878-3.038,21.399-14.916,21.399-30.958
		C357.029,13.047,345.48,0,328.945,0H80.055C63.52,0,51.971,13.047,51.971,31.728c0,16.041,8.521,27.92,21.399,30.958v30.347
		c-12.226,8.328-42.843,32.758-53.902,74.738c-19.899,75.534,53.727,197.18,56.872,202.321C89.682,391.909,120.165,409,145.739,409
		h117.523c25.573,0,56.057-17.091,69.399-38.908C335.805,364.95,409.431,243.305,389.532,167.77z M71.971,31.728
		c0-4.38,1.05-11.728,8.084-11.728h248.89c7.034,0,8.084,7.348,8.084,11.728c0,4.38-1.05,11.727-8.084,11.727H80.055
		C73.021,43.454,71.971,36.107,71.971,31.728z M315.598,359.658C305.872,375.564,281.905,389,263.262,389H145.739
		c-18.643,0-42.61-13.436-52.336-29.34c-0.725-1.188-72.323-119.498-54.595-186.794c11.451-43.469,49.124-65.44,49.482-65.644
		c3.139-1.774,5.08-5.101,5.08-8.706V63.454H315.63v35.062c0,3.587,1.944,6.913,5.058,8.693
		c0.379,0.217,38.053,22.189,49.504,65.657C387.92,240.162,316.322,358.473,315.598,359.658z"/>
	<path d="M314.704,177.78c-1.786-3.094-5.087-5-8.66-5h-50.758c-3.573,0-6.874,1.906-8.66,5l-22.493,38.959h-39.266l-22.493-38.959
		c-1.786-3.094-5.087-5-8.66-5h-50.758c-3.573,0-6.874,1.906-8.66,5l-25.379,43.959c-1.787,3.094-1.787,6.906,0,10l25.379,43.958
		c1.786,3.094,5.087,5,8.66,5h45.039l22.493,38.958c1.786,3.094,5.087,5,8.66,5h50.758c3.573,0,6.874-1.906,8.66-5l22.493-38.958
		h44.985c3.573,0,6.874-1.906,8.66-5l25.379-43.958c1.787-3.094,1.787-6.906,0-10L314.704,177.78z M147.941,260.697h-39.211
		l-19.606-33.958l19.606-33.959h39.211l19.606,33.959L147.941,260.697z M224.133,304.655h-39.211l-19.606-33.958l19.606-33.958
		h39.211l9.803,16.979l9.803,16.979L224.133,304.655z M300.271,260.697h-39.211l-9.803-16.979l-9.803-16.979l19.606-33.959h39.211
		l19.606,33.959L300.271,260.697z"/>
	<path d="M254.5,108.516h35.556c5.523,0,10-4.478,10-10c0-5.522-4.477-10-10-10H254.5c-5.523,0-10,4.478-10,10
		C244.5,104.038,248.977,108.516,254.5,108.516z"/>
	<path d="M118.944,108.516h99.556c5.523,0,10-4.478,10-10c0-5.522-4.477-10-10-10h-99.556c-5.523,0-10,4.478-10,10
		C108.944,104.038,113.421,108.516,118.944,108.516z"/>
</g>
<g>
</g>
<g>
</g>
<g>
</g>
<g>
</g>
<g>
</g>
<g>
</g>
<g>
</g>
<g>
</g>
<g>
</g>
<g>
</g>
<g>
</g>
<g>
</g>
<g>
</g>
<g>
</g>
<g>
</g>
</svg>
