
<svg width="140px" height="144px" viewBox="0 0 140 144" version="1.1" xmlns="http://www.w3.org/2000/svg" xmlns:xlink="http://www.w3.org/1999/xlink" xmlns:sketch="http://www.bohemiancoding.com/sketch/ns">
    <g id="MMS" stroke="none" stroke-width="1" fill="none" fill-rule="evenodd" sketch:type="MSPage">
        <g sketch:type="MSLayerGroup" transform="translate(-24.000000, -5.000000)">
            <g id="eo" transform="translate(66.000000, 2.000000)" sketch:type="MSShapeGroup">
                <path d="M7.43725586,39.3122559 L13.8747559,50.8122559 L41.2497559,50.8747559 L47.9997559,39.3122559 L7.43725586,39.3122559 Z" id="q1" fill="{{eo.q1}}"></path>
                <path d="M7.25310161,39 L0,27.4375 L54.8436279,27.6783854 L48.1631396,39 L7.25310161,39 Z" id="q2" fill="#FDD835"></path>
                <path d="M1,27.18571 L8.26119782,14.25 L47.8593402,14.3444212 L54.8436279,27.4375 L1,27.18571 Z" id="q3" fill="#FDD835"></path>
                <path d="M8,14.25 L14.2421979,3.5 L41.6333351,3.71685879 L47.9997559,14.25 L8,14.25 Z" id="q4" fill="#FDD835"></path>
                <path d="M8.5,14.5 L47.5,14.5" id="Line" stroke="#979797" stroke-linecap="square"></path>
                <polygon id="hexeo" stroke="#979797" transform="translate(28.000000, 27.000000) rotate(-270.000000) translate(-28.000000, -27.000000) " points="28 0 51.3826859 13.5 51.3826859 40.5 28 54 4.6173141 40.5 4.6173141 13.5 "></polygon>
            </g>
            <g id="ds" transform="translate(134.851597, 52.632686) rotate(-300.000000) translate(-134.851597, -52.632686) translate(99.851597, 16.132686)" sketch:type="MSShapeGroup">
                <path d="M14,48.3122559 L20.6656007,59.8122559 L49.0105823,59.8747559 L55.9997559,48.3122559 L14,48.3122559 Z" id="q1" fill="#FFB300"></path>
                <path d="M15.2531016,49 L8,36.4375 L62.8436279,36.6992187 L56.1631396,49 L15.2531016,49 Z" id="q2" fill="#FFB300"></path>
                <path d="M8,36.18571 L15.396055,23.25 L55.7296259,23.3444212 L62.8436279,36.4375 L8,36.18571 Z" id="q3" fill="#FFB300"></path>
                <path d="M15.4699707,23.34375 L21.638865,11.78125 L48.7083416,12.0144993 L55,23.34375 L15.4699707,23.34375 Z" id="q4" fill="#FFB300"></path>
                <path d="M15.7907079,23.5060982 L55.2355702,23.18559" id="Line" stroke="#979797" stroke-linecap="square"></path>
                <polygon id="hexds" stroke="#979797" transform="translate(35.234985, 36.437500) rotate(-210.000000) translate(-35.234985, -36.437500) " points="35.2349854 9.02724596 58.9729617 22.732373 58.9729617 50.142627 35.2349854 63.847754 11.497009 50.142627 11.497009 22.732373 "></polygon>
            </g>
            <g id="r" transform="translate(135.284610, 101.248711) rotate(-240.000000) translate(-135.284610, -101.248711) translate(97.284610, 63.248711)" sketch:type="MSShapeGroup">
                <path d="M17.4372559,50.3122559 L23.8747559,61.8122559 L51.2497559,61.8747559 L57.9997559,50.3122559 L17.4372559,50.3122559 Z" id="q1" fill="#FB8C00"></path>
                <path d="M17.2531016,50 L10,38.4375 L64.8436279,38.6783854 L58.1631396,50 L17.2531016,50 Z" id="q2" fill="#FB8C00"></path>
                <path d="M10,37.7565632 L17.396055,25.25 L57.7296259,25.3412888 L64.8436279,38 L10,37.7565632 Z" id="q3" fill="#FB8C00"></path>
                <path d="M17.4699707,25.34375 L23.7512207,13.78125 L51.3137207,14.0144993 L57.7199707,25.34375 L17.4699707,25.34375 Z" id="q4" fill="#FB8C00"></path>
                <path d="M17.2176224,25.5012887 L57.5285126,25.5012887" id="Line" stroke="#979797" stroke-linecap="square"></path>
                <polygon id="hexr" stroke="#979797" transform="translate(37.718506, 38.000000) rotate(-210.000000) translate(-37.718506, -38.000000) " points="37.7185059 10.441343 61.585003 24.2206715 61.585003 51.7793285 37.7185059 65.558657 13.8520088 51.7793285 13.8520088 24.2206715 "></polygon>
            </g>
            <g id="t" transform="translate(94.000000, 124.500000) rotate(-180.000000) translate(-94.000000, -124.500000) translate(56.000000, 86.000000)" sketch:type="MSShapeGroup">
                <path d="M17.4372559,50.3122559 L24.0335003,61.8122559 L52.0835495,61.8747559 L59,50.3122559 L17.4372559,50.3122559 Z" id="q1" fill="#00695C"></path>
                <path d="M17.4060325,50 L10,38.4375 L66,38.6783854 L59.1786543,50 L17.4060325,50 Z" id="q2" fill="#00695C"></path>
                <path d="M11.1563721,38.18571 L18.4175699,25.25 L58.0157123,25.3444212 L65,38.4375 L11.1563721,38.18571 Z" id="q3" fill="#00695C"></path>
                <path d="M18.4375,25.34375 L24.6114616,14.5 L51.7031735,14.71875 L58,25.34375 L18.4375,25.34375 Z" id="q4" fill="#00695C"></path>
                <path d="M58.5,25.5 L18.5,25.5" id="Line" stroke="#979797" stroke-linecap="square"></path>
                <polygon id="hext" stroke="#979797" transform="translate(38.000000, 38.437500) rotate(-210.000000) translate(-38.000000, -38.437500) " points="38 10.878843 61.8664971 24.6581715 61.8664971 52.2168285 38 65.996157 14.1335029 52.2168285 14.1335029 24.6581715 "></polygon>
            </g>
            <g id="e" transform="translate(52.534610, 100.815699) rotate(-120.000000) translate(-52.534610, -100.815699) translate(25.034610, 76.815699)" sketch:type="MSShapeGroup">
                <path d="M7.43725586,36.3122559 L13.8747559,47.8122559 L41.2497559,47.8747559 L47.9997559,36.3122559 L7.43725586,36.3122559 Z" id="q1" fill="#26A69A"></path>
                <path d="M7.25310161,36 L2.84217094e-14,24.4375 L54.8436279,24.6783854 L48.1631396,36 L7.25310161,36 Z" id="q2" fill="#26A69A"></path>
                <path d="M0,23.7565632 L7.39605497,11.25 L47.7296259,11.3412888 L54.8436279,24 L0,23.7565632 Z" id="q3" fill="#26A69A"></path>
                <path d="M7.4699707,11.34375 L13.7512207,0.5 L41.3137207,0.71875 L47.7199707,11.34375 L7.4699707,11.34375 Z" id="q4" fill="#26A69A"></path>
                <path d="M47.8169873,11.441343 L7.50609816,11.441343" id="Line" stroke="#979797" stroke-linecap="square"></path>
            </g>
            <g id="s" transform="translate(53.217622, 52.632686) rotate(-60.000000) translate(-53.217622, -52.632686) translate(15.217622, 14.132686)" sketch:type="MSShapeGroup">
                <path d="M17.4372559,50.3122559 L23.8747559,61.8122559 L51.2497559,61.8747559 L57.9997559,50.3122559 L17.4372559,50.3122559 Z" id="q1" fill="#80CBC4"></path>
                <path d="M17.2531016,50 L10,38.4375 L64.8436279,38.6783854 L58.1631396,50 L17.2531016,50 Z" id="q2" fill="#80CBC4"></path>
                <path d="M10,38.18571 L17.396055,25.25 L57.7296259,25.3444212 L64.8436279,38.4375 L10,38.18571 Z" id="q3" fill="#80CBC4"></path>
                <path d="M17.4699707,25.34375 L23.7512207,13.78125 L51.3137207,14.0144993 L57.7199707,25.34375 L17.4699707,25.34375 Z" id="q4" fill="#80CBC4"></path>
                <path d="M17.7298187,25.1256443 L57.1746811,25.4461525" id="Line" stroke="#979797" stroke-linecap="square"></path>
                <polygon id="hexs" stroke="#979797" transform="translate(37.718506, 38.437500) rotate(-210.000000) translate(-37.718506, -38.437500) " points="37.7185059 10.878843 61.585003 24.6581715 61.585003 52.2168285 37.7185059 65.996157 13.8520088 52.2168285 13.8520088 24.6581715 "></polygon>
            </g>
            <polygon id="inner" stroke="#9E9E9E" sketch:type="MSShapeGroup" transform="translate(94.000000, 77.000000) rotate(-270.000000) translate(-94.000000, -77.000000) " points="94 49 118.248711 63 118.248711 91 94 105 69.7512887 91 69.7512887 63 "></polygon>
            <polygon id="hex25" stroke="#9E9E9E" sketch:type="MSShapeGroup" transform="translate(94.000000, 77.000000) rotate(-270.000000) translate(-94.000000, -77.000000) " points="94 36 129.507042 56.5 129.507042 97.5 94 118 58.4929584 97.5 58.4929584 56.5 "></polygon>
            <polygon id="hex50" stroke="#9E9E9E" sketch:type="MSShapeGroup" transform="translate(94.000000, 77.000000) rotate(-270.000000) translate(-94.000000, -77.000000) " points="94 22 141.631397 49.5 141.631397 104.5 94 132 46.3686028 104.5 46.3686028 49.5 "></polygon>
            <polygon id="hexe" stroke="#979797" sketch:type="MSShapeGroup" transform="translate(52.645826, 100.645826) rotate(-210.000000) translate(-52.645826, -100.645826) " points="52.6458256 73.0871686 76.5123227 86.8664971 76.5123227 114.425154 52.6458256 128.204483 28.7793285 114.425154 28.7793285 86.8664971 "></polygon>
        </g>
    </g>
</svg>