<?xml version="1.0" encoding="UTF-8" standalone="no"?>
<svg width="131px" height="143px" viewBox="0 0 131 143" version="1.1" xmlns="http://www.w3.org/2000/svg" xmlns:xlink="http://www.w3.org/1999/xlink" xmlns:sketch="http://www.bohemiancoding.com/sketch/ns">
    <!-- Generator: Sketch 3.5.2 (25235) - http://www.bohemiancoding.com/sketch -->
    <title>pm-fixed</title>
    <desc>Created with Sketch.</desc>
    <defs></defs>
    <g id="PeriodMarkers" stroke="none" stroke-width="1" fill="none" fill-rule="evenodd" sketch:type="MSPage">
        <g id="pm-fixed" sketch:type="MSLayerGroup" transform="translate(-19.000000, -6.000000)">
            <rect id="frame" sketch:type="MSShapeGroup" x="0" y="0" width="169" height="163"></rect>
            <g id="fixed" transform="translate(19.000000, 114.000000)" fill="#333333" sketch:type="MSShapeGroup">
                <rect id="Rectangle-1" x="0" y="0" width="9" height="35" rx="8"></rect>
                <rect id="Rectangle-1" x="61" y="-44" width="9" height="131" rx="8"></rect>
                <rect id="Rectangle-1" x="122" y="0" width="9" height="35" rx="8"></rect>
            </g>
            <g id="period-marker" transform="translate(32.000000, 6.000000)">
                <rect id="outer-rect" stroke="#333333" fill="#333333" sketch:type="MSShapeGroup" x="0" y="13" width="106" height="100" rx="13"></rect>
                <rect id="inner-rect" stroke="#FFFFFF" fill="#FFFFFF" sketch:type="MSShapeGroup" x="8" y="39" width="90" height="65" rx="4"></rect>
                <g id="hangers" transform="translate(20.000000, 0.000000)" sketch:type="MSShapeGroup">
                    <rect id="Rectangle-5" stroke="#FFFFFF" fill="#FFFFFF" x="0" y="0" width="17" height="30" rx="8"></rect>
                    <rect id="Rectangle-5" stroke="#FFFFFF" fill="#FFFFFF" x="49" y="0" width="17" height="30" rx="8"></rect>
                    <rect id="Rectangle-7" stroke="#333333" fill="#333333" x="53" y="5" width="9" height="21" rx="8"></rect>
                    <rect id="Rectangle-7" stroke="#333333" fill="#333333" x="4" y="5" width="9" height="21" rx="8"></rect>
                </g>
                <text id="daytext" sketch:type="MSTextLayer" font-family="Helvetica" font-size="48" font-weight="bold" sketch:alignment="middle" fill="#333333">
                    <tspan x="17.8125" y="88">1m</tspan>
                </text>
            </g>
        </g>
    </g>
</svg>