<?xml version="1.0" encoding="UTF-8" standalone="no"?>
<svg width="86px" height="84px" viewBox="0 0 86 84" version="1.1" xmlns="http://www.w3.org/2000/svg" xmlns:xlink="http://www.w3.org/1999/xlink" xmlns:sketch="http://www.bohemiancoding.com/sketch/ns">
    <!-- Generator: Sketch 3.4.2 (15857) - http://www.bohemiancoding.com/sketch -->
    <title>Group@2x</title>
    <desc>Created with Sketch.</desc>
    <defs></defs>
    <g id="HoneyCombWidgetSm" stroke="none" stroke-width="1" fill="none" fill-rule="evenodd" sketch:type="MSPage">
        <g id="Group" sketch:type="MSLayerGroup" transform="translate(-1.000000, 2.000000)" stroke-width="2" stroke="#979797">
            <polygon id="cell1" fill="#216995" sketch:type="MSShapeGroup" points="43.7491076 24.2238495 57.4031974 32.107042 57.4031974 47.8734268 43.7491076 55.7566192 30.0950178 47.8734268 30.0950178 32.107042 "></polygon>
            <polygon id="cell2" fill="#D8D8D8" sketch:type="MSShapeGroup" points="57.7164368 0 71.3705266 7.88319242 71.3705266 23.6495772 57.7164368 31.5327697 44.062347 23.6495772 44.062347 7.88319242 "></polygon>
            <polygon id="cell3" fill="#D8D8D8" sketch:type="MSShapeGroup" points="71.8362435 24.2238495 85.4099523 32.1592485 85.4099523 47.8212202 71.8362435 55.7566192 58.0537084 47.8212202 58.0537084 32.1592485 "></polygon>
            <polygon id="cell4" fill="#D8D8D8" sketch:type="MSShapeGroup" points="57.740469 48.4476991 71.3945587 56.3308915 71.3945587 72.0972763 57.740469 79.9804688 44.0863792 72.0972763 44.0863792 56.3308915 "></polygon>
            <polygon id="cell7" fill="#D8D8D8" sketch:type="MSShapeGroup" points="29.7577462 0 43.411836 7.88319242 43.411836 23.6495772 29.7577462 31.5327697 16.1036564 23.6495772 16.1036564 7.88319242 "></polygon>
            <polygon id="cell6" fill="#D8D8D8" sketch:type="MSShapeGroup" points="15.7663848 24.2238495 29.4204746 32.107042 29.4204746 47.8734268 15.7663848 55.7566192 2.11229504 47.8734268 2.11229504 32.107042 "></polygon>
            <polygon id="cell5" fill="#D8D8D8" sketch:type="MSShapeGroup" points="29.7577462 48.4476991 43.411836 56.3308915 43.411836 72.0972763 29.7577462 79.9804688 16.1036564 72.0972763 16.1036564 56.3308915 "></polygon>
        </g>
    </g>
</svg>